<svg xmlns="http://www.w3.org/2000/svg" width="32" height="32" viewBox="0 0 32 32" fill="none">
  <path d="M16 19C15.2044 19 14.4413 18.6839 13.8787 18.1213C13.3161 17.5587 13 16.7956 13 16C13 15.2044 13.3161 14.4413 13.8787 13.8787C14.4413 13.3161 15.2044 13 16 13C16.7956 13 17.5587 13.3161 18.1213 13.8787C18.6839 14.4413 19 15.2044 19 16C19 16.7956 18.6839 17.5587 18.1213 18.1213C17.5587 18.6839 16.7956 19 16 19Z" fill="#29D4FF"/>
  <path fill-rule="evenodd" clip-rule="evenodd" d="M15.9998 29.3334C8.63584 29.3334 2.6665 23.364 2.6665 16C2.6665 8.63602 8.63584 2.66669 15.9998 2.66669C23.3638 2.66669 29.3332 8.63602 29.3332 16C29.3344 18.2699 28.7556 20.5024 27.6519 22.4859C26.5482 24.4693 24.956 26.1379 23.0265 27.3334H28.3332C28.5984 27.3334 28.8527 27.4387 29.0403 27.6262C29.2278 27.8138 29.3332 28.0681 29.3332 28.3334C29.3332 28.5986 29.2278 28.8529 29.0403 29.0405C28.8527 29.228 28.5984 29.3334 28.3332 29.3334H15.9998ZM17.3332 7.33335C17.3332 6.97973 17.1927 6.64059 16.9426 6.39054C16.6926 6.1405 16.3535 6.00002 15.9998 6.00002C15.6462 6.00002 15.3071 6.1405 15.057 6.39054C14.807 6.64059 14.6665 6.97973 14.6665 7.33335C14.6665 7.68698 14.807 8.02611 15.057 8.27616C15.3071 8.52621 15.6462 8.66669 15.9998 8.66669C16.3535 8.66669 16.6926 8.52621 16.9426 8.27616C17.1927 8.02611 17.3332 7.68698 17.3332 7.33335ZM8.6665 16C8.6665 16.3536 8.52603 16.6928 8.27598 16.9428C8.02593 17.1929 7.68679 17.3334 7.33317 17.3334C6.97955 17.3334 6.64041 17.1929 6.39036 16.9428C6.14031 16.6928 5.99984 16.3536 5.99984 16C5.99984 15.6464 6.14031 15.3073 6.39036 15.0572C6.64041 14.8072 6.97955 14.6667 7.33317 14.6667C7.68679 14.6667 8.02593 14.8072 8.27598 15.0572C8.52603 15.3073 8.6665 15.6464 8.6665 16ZM25.9998 16C25.9998 16.3536 25.8594 16.6928 25.6093 16.9428C25.3593 17.1929 25.0201 17.3334 24.6665 17.3334C24.3129 17.3334 23.9737 17.1929 23.7237 16.9428C23.4736 16.6928 23.3332 16.3536 23.3332 16C23.3332 15.6464 23.4736 15.3073 23.7237 15.0572C23.9737 14.8072 24.3129 14.6667 24.6665 14.6667C25.0201 14.6667 25.3593 14.8072 25.6093 15.0572C25.8594 15.3073 25.9998 15.6464 25.9998 16ZM15.9998 23.3334C16.3535 23.3334 16.6926 23.4738 16.9426 23.7239C17.1927 23.9739 17.3332 24.3131 17.3332 24.6667C17.3332 25.0203 17.1927 25.3594 16.9426 25.6095C16.6926 25.8595 16.3535 26 15.9998 26C15.6462 26 15.3071 25.8595 15.057 25.6095C14.807 25.3594 14.6665 25.0203 14.6665 24.6667C14.6665 24.3131 14.807 23.9739 15.057 23.7239C15.3071 23.4738 15.6462 23.3334 15.9998 23.3334ZM10.9998 16C10.9998 17.3261 11.5266 18.5979 12.4643 19.5356C13.402 20.4732 14.6738 21 15.9998 21C17.3259 21 18.5977 20.4732 19.5354 19.5356C20.4731 18.5979 20.9998 17.3261 20.9998 16C20.9998 14.6739 20.4731 13.4022 19.5354 12.4645C18.5977 11.5268 17.3259 11 15.9998 11C14.6738 11 13.402 11.5268 12.4643 12.4645C11.5266 13.4022 10.9998 14.6739 10.9998 16Z" fill="#29D4FF"/>
</svg>