<svg xmlns="http://www.w3.org/2000/svg" width="57" height="57" viewBox="0 0 57 57" fill="none">
  <path d="M29.6875 7.125C24.3534 7.18935 19.256 9.33691 15.4839 13.1089C11.7119 16.881 9.56435 21.9784 9.5 27.3125C9.56435 32.6466 11.7119 37.744 15.4839 41.5161C19.256 45.2881 24.3534 47.4356 29.6875 47.5C35.0216 47.4356 40.119 45.2881 43.8911 41.5161C47.6631 37.744 49.8106 32.6466 49.875 27.3125C49.8106 21.9784 47.6631 16.881 43.8911 13.1089C40.119 9.33691 35.0216 7.18935 29.6875 7.125ZM41.2232 28.7545H31.1295V38.8482H28.2455V28.7545H18.1518V25.8705H28.2455V15.7768H31.1295V25.8705H41.2232V28.7545Z" fill="white"/>
</svg>